<svg width="36" height="36" viewBox="0 0 36 36" fill="none" xmlns="http://www.w3.org/2000/svg">
<path d="M30.7484 4.07532H29.6958V29.9363C29.6958 31.6543 28.2973 33.0527 26.5793 33.0527H15.9138H7.43262V34.0114C7.43262 35.1092 8.3236 36.0001 9.42134 36.0001H20.083H30.7447C31.8424 36.0001 32.7334 35.1092 32.7334 34.0114V6.06404C32.7334 4.96629 31.8462 4.07532 30.7484 4.07532Z" fill="white"/>
<path d="M15.9132 31.9248H26.5749C27.6726 31.9248 28.5636 31.0338 28.5636 29.9361V4.07519V1.98872C28.5636 0.890978 27.6726 0 26.5749 0H15.9132H12.3681V0.657895C12.3756 0.725564 12.3794 0.796993 12.3794 0.868421V5.20301V6.31579C12.3794 7.8609 11.1238 9.11654 9.57864 9.11654H8.46585H4.13126C4.07487 9.11654 4.01472 9.11278 3.95833 9.10902H3.2666V29.9361C3.2666 31.0338 4.15758 31.9248 5.25533 31.9248H7.43578H15.9132ZM16.3155 25.1654H9.36435C8.84556 25.1654 8.4245 24.7443 8.4245 24.2256C8.4245 23.7067 8.84556 23.2857 9.36435 23.2857H16.3192C16.838 23.2857 17.2591 23.7067 17.2591 24.2256C17.2591 24.7443 16.8343 25.1654 16.3155 25.1654ZM23.2704 20.3685H9.36435C8.84556 20.3685 8.4245 19.9474 8.4245 19.4286C8.4245 18.9098 8.84556 18.4888 9.36435 18.4888H23.2704C23.7892 18.4888 24.2102 18.9098 24.2102 19.4286C24.2102 19.9474 23.7892 20.3685 23.2704 20.3685ZM9.36435 13.3947H23.2704C23.7892 13.3947 24.2102 13.8158 24.2102 14.3346C24.2102 14.8534 23.7892 15.2744 23.2704 15.2744H9.36435C8.84556 15.2744 8.4245 14.8534 8.4245 14.3346C8.4245 13.8158 8.84556 13.3947 9.36435 13.3947Z" fill="white"/>
<path d="M4.13139 7.98892H9.57876C9.58252 7.98892 9.59003 7.98892 9.59379 7.98892C10.5036 7.9814 11.2404 7.24456 11.2479 6.33478C11.2479 6.33103 11.2479 6.32351 11.2479 6.31975V0.868619C11.2479 0.36486 10.8344 0.0302734 10.4059 0.0302734C10.1991 0.0302734 9.99233 0.105461 9.81939 0.278394L3.53741 6.56035C3.01109 7.08666 3.38327 7.98892 4.13139 7.98892Z" fill="white"/>
</svg>
