<svg width="33" height="29" viewBox="0 0 33 29" fill="none" xmlns="http://www.w3.org/2000/svg">
<path d="M30.2813 12.5312L6.93187 12.5312L14.0784 3.94749C14.2439 3.74842 14.3685 3.5187 14.4452 3.27146C14.5219 3.02422 14.5492 2.76429 14.5254 2.50652C14.4774 1.98593 14.2246 1.50573 13.8225 1.17156C13.4204 0.837383 12.9021 0.676613 12.3815 0.724609C11.8609 0.772608 11.3807 1.02544 11.0466 1.4275L1.20281 13.24C1.13658 13.334 1.07736 13.4327 1.02562 13.5353C1.02562 13.6337 0.927187 13.6928 0.887812 13.7912C0.798574 14.017 0.751852 14.2573 0.75 14.5C0.751852 14.7427 0.798574 14.983 0.887812 15.2087C0.887812 15.3072 0.986248 15.3662 1.02562 15.4647C1.07736 15.5673 1.13658 15.666 1.20281 15.76L11.0466 27.5725C11.2317 27.7947 11.4635 27.9735 11.7255 28.096C11.9875 28.2185 12.2733 28.2817 12.5625 28.2812C13.0225 28.2821 13.4683 28.1219 13.8225 27.8284C14.0219 27.6632 14.1866 27.4602 14.3074 27.2311C14.4282 27.0021 14.5026 26.7514 14.5264 26.4936C14.5502 26.2357 14.5228 25.9757 14.446 25.7284C14.3691 25.4811 14.2442 25.2514 14.0784 25.0525L6.93187 16.4687L30.2812 16.4687C30.8034 16.4687 31.3042 16.2613 31.6734 15.8921C32.0426 15.5229 32.25 15.0221 32.25 14.5C32.25 13.9778 32.0426 13.4771 31.6734 13.1079C31.3042 12.7387 30.8034 12.5312 30.2813 12.5312Z" fill="#676161"/>
</svg>
