<svg width="71" height="71" viewBox="0 0 71 71" fill="none" xmlns="http://www.w3.org/2000/svg">
<g filter="url(#filter0_d)">
<circle cx="35.5" cy="31.5" r="31.5" transform="rotate(-180 35.5 31.5)" fill="white"/>
<path d="M49.2812 29.5312L25.9319 29.5312L33.0784 20.9475C33.2439 20.7484 33.3685 20.5187 33.4452 20.2715C33.5219 20.0242 33.5492 19.7643 33.5254 19.5065C33.4774 18.9859 33.2246 18.5057 32.8225 18.1716C32.4204 17.8374 31.9021 17.6766 31.3815 17.7246C30.8609 17.7726 30.3807 18.0254 30.0466 18.4275L20.2028 30.24C20.1366 30.334 20.0774 30.4327 20.0256 30.5353C20.0256 30.6337 19.9272 30.6928 19.8878 30.7912C19.7986 31.017 19.7519 31.2573 19.75 31.5C19.7519 31.7427 19.7986 31.983 19.8878 32.2087C19.8878 32.3072 19.9862 32.3662 20.0256 32.4647C20.0774 32.5673 20.1366 32.666 20.2028 32.76L30.0466 44.5725C30.2317 44.7947 30.4635 44.9735 30.7255 45.096C30.9875 45.2185 31.2733 45.2817 31.5625 45.2812C32.0225 45.2821 32.4683 45.1219 32.8225 44.8284C33.0219 44.6632 33.1866 44.4602 33.3074 44.2311C33.4282 44.0021 33.5026 43.7514 33.5264 43.4936C33.5502 43.2357 33.5228 42.9757 33.446 42.7284C33.3691 42.4811 33.2442 42.2514 33.0784 42.0525L25.9319 33.4687H49.2812C49.8034 33.4687 50.3042 33.2613 50.6734 32.8921C51.0426 32.5229 51.25 32.0221 51.25 31.5C51.25 30.9778 51.0426 30.4771 50.6734 30.1079C50.3042 29.7387 49.8034 29.5312 49.2812 29.5312Z" fill="#676161"/>
</g>
<defs>
<filter id="filter0_d" x="0" y="0" width="71" height="71" filterUnits="userSpaceOnUse" color-interpolation-filters="sRGB">
<feFlood flood-opacity="0" result="BackgroundImageFix"/>
<feColorMatrix in="SourceAlpha" type="matrix" values="0 0 0 0 0 0 0 0 0 0 0 0 0 0 0 0 0 0 127 0"/>
<feOffset dy="4"/>
<feGaussianBlur stdDeviation="2"/>
<feColorMatrix type="matrix" values="0 0 0 0 0 0 0 0 0 0 0 0 0 0 0 0 0 0 0.25 0"/>
<feBlend mode="normal" in2="BackgroundImageFix" result="effect1_dropShadow"/>
<feBlend mode="normal" in="SourceGraphic" in2="effect1_dropShadow" result="shape"/>
</filter>
</defs>
</svg>
