<svg width="71" height="71" viewBox="0 0 71 71" fill="none" xmlns="http://www.w3.org/2000/svg">
<g filter="url(#filter0_d)">
<circle cx="35.5" cy="31.5" r="31.5" fill="white"/>
<path d="M21.7188 33.4688H45.0681L37.9216 42.0525C37.7561 42.2516 37.6315 42.4813 37.5548 42.7285C37.4781 42.9758 37.4508 43.2357 37.4746 43.4935C37.5226 44.0141 37.7754 44.4943 38.1775 44.8284C38.5796 45.1626 39.0979 45.3234 39.6185 45.2754C40.1391 45.2274 40.6193 44.9746 40.9534 44.5725L50.7972 32.76C50.8634 32.666 50.9226 32.5673 50.9744 32.4647C50.9744 32.3663 51.0728 32.3072 51.1122 32.2088C51.2014 31.983 51.2481 31.7427 51.25 31.5C51.2481 31.2573 51.2014 31.017 51.1122 30.7913C51.1122 30.6928 51.0138 30.6338 50.9744 30.5353C50.9226 30.4327 50.8634 30.334 50.7972 30.24L40.9534 18.4275C40.7683 18.2053 40.5365 18.0265 40.2745 17.904C40.0125 17.7815 39.7267 17.7183 39.4375 17.7188C38.9775 17.7179 38.5317 17.8781 38.1775 18.1716C37.9781 18.3368 37.8134 18.5398 37.6926 18.7689C37.5718 18.9979 37.4974 19.2486 37.4736 19.5064C37.4498 19.7643 37.4772 20.0243 37.554 20.2716C37.6309 20.5189 37.7558 20.7486 37.9216 20.9475L45.0681 29.5313H21.7188C21.1966 29.5313 20.6958 29.7387 20.3266 30.1079C19.9574 30.4771 19.75 30.9779 19.75 31.5C19.75 32.0222 19.9574 32.5229 20.3266 32.8921C20.6958 33.2613 21.1966 33.4688 21.7188 33.4688Z" fill="#676161"/>
</g>
<defs>
<filter id="filter0_d" x="0" y="0" width="71" height="71" filterUnits="userSpaceOnUse" color-interpolation-filters="sRGB">
<feFlood flood-opacity="0" result="BackgroundImageFix"/>
<feColorMatrix in="SourceAlpha" type="matrix" values="0 0 0 0 0 0 0 0 0 0 0 0 0 0 0 0 0 0 127 0"/>
<feOffset dy="4"/>
<feGaussianBlur stdDeviation="2"/>
<feColorMatrix type="matrix" values="0 0 0 0 0 0 0 0 0 0 0 0 0 0 0 0 0 0 0.25 0"/>
<feBlend mode="normal" in2="BackgroundImageFix" result="effect1_dropShadow"/>
<feBlend mode="normal" in="SourceGraphic" in2="effect1_dropShadow" result="shape"/>
</filter>
</defs>
</svg>
