<svg width="65" height="52" viewBox="0 0 65 52" fill="none" xmlns="http://www.w3.org/2000/svg">
<path d="M2.46373 6.32056H9.84063V24.4821H2.46373C1.39972 24.4821 0.537109 23.563 0.537109 22.4293V8.37337C0.537109 7.23967 1.39972 6.32056 2.46373 6.32056Z" fill="#00A4D5"/>
<path d="M61.1452 24.4809H55.0527V6.31934H61.1452C62.2092 6.31934 63.0718 7.23845 63.0718 8.37215V22.4281C63.0718 23.5618 62.2092 24.4809 61.1452 24.4809Z" fill="#FFD64E"/>
<path d="M62.4302 6.31934H59.8613C60.9253 6.31934 61.7879 7.23845 61.7879 8.37215V22.4281C61.7879 23.5618 60.9253 24.4809 59.8613 24.4809H62.4302C63.4942 24.4809 64.3568 23.5618 64.3568 22.4281V8.37215C64.3568 7.23845 63.4942 6.31934 62.4302 6.31934Z" fill="#00A4D5"/>
<path d="M23.8068 13.4558L24.9506 20.3248L21.7656 21.0076L25.2389 25.6248C25.4216 25.8676 25.5211 26.1695 25.5211 26.4807V49.8164C25.5211 50.9501 26.3837 51.8692 27.4477 51.8692H37.9762C39.0402 51.8692 39.9028 50.9501 39.9028 49.8164V26.8889C39.9028 26.4415 40.108 26.0225 40.4523 25.7666L42.3119 24.3842C43.1726 23.7443 43.6856 22.6966 43.6856 21.5783V13.4558H23.8068Z" fill="#FED2A4"/>
<path d="M41.1175 13.4558V21.5783C41.1175 22.6965 40.6047 23.7443 39.7439 24.3842L37.8843 25.7667C37.5399 26.0226 37.3348 26.4417 37.3348 26.889V49.8164C37.3348 50.9501 36.4722 51.8692 35.4082 51.8692H37.977C39.041 51.8692 39.9036 50.9501 39.9036 49.8164V26.8889C39.9036 26.4415 40.1088 26.0225 40.4531 25.7666L42.3127 24.3841C43.1734 23.7441 43.6864 22.6965 43.6864 21.5781V13.4558H41.1175Z" fill="#FFBD86"/>
<path d="M47.8683 20.1194L46.6294 19.3793L45.2515 20.1194H15.7422V10.6816H45.2515L46.5731 11.413L47.8683 10.6816V20.1194Z" fill="#EFEDEF"/>
<path d="M45.25 10.6819H49.1032V20.1194H45.25V10.6819Z" fill="#D7D0D6"/>
<path d="M28.7778 8.19629H33.7471L38.7165 9.56483L38.7171 14.4185H33.7471H28.7778L27.7852 12.2223L28.7778 8.19629Z" fill="#FFBD86"/>
<path d="M26.2916 16.9292C26.0224 16.9292 25.7632 17.0204 25.5204 16.936C24.5255 16.5903 23.8066 15.5937 23.8066 14.4183V8.19606C23.8066 7.02062 24.5255 6.02404 25.5206 5.67835C25.7633 5.59405 26.0225 5.68519 26.2916 5.68519C27.664 5.68519 28.6481 6.73377 28.6481 8.19606V14.4183C28.6481 15.8806 27.664 16.9292 26.2916 16.9292Z" fill="#FFBD86"/>
<path d="M26.2921 5.54834C26.0229 5.54834 25.7642 5.59542 25.5215 5.67972C26.5163 6.02541 27.2358 7.02062 27.2358 8.19606V14.4183C27.2358 15.5937 26.5163 16.5888 25.5215 16.9346C25.7642 17.0191 26.0229 17.066 26.2921 17.066C27.6645 17.066 28.7771 15.8806 28.7771 14.4183V8.19606C28.7771 6.73377 27.6645 5.54834 26.2921 5.54834Z" fill="#F6A96C"/>
<path d="M41.2017 16.9293C40.9325 16.9293 40.6733 17.0205 40.4307 16.9361C39.4358 16.5904 38.7168 15.5938 38.7168 14.4184V9.56472C38.7168 8.38927 39.4357 7.3927 40.4307 7.047C40.6735 6.9627 40.9327 7.05385 41.2017 7.05385C42.5741 7.05385 43.5583 8.10242 43.5583 9.56472V14.4184C43.5583 15.8807 42.5741 16.9293 41.2017 16.9293Z" fill="#FFBD86"/>
<path d="M41.2003 6.91699C40.9311 6.91699 40.6724 6.96407 40.4297 7.04837C41.4246 7.39407 42.144 8.38927 42.144 9.56472V14.4184C42.144 15.5938 41.4245 16.5889 40.4297 16.9347C40.6724 17.0192 40.9311 17.0661 41.2003 17.0661C42.5727 17.0661 43.6853 15.8807 43.6853 14.4184V9.56472C43.6853 8.10243 42.5727 6.91699 41.2003 6.91699Z" fill="#F6A96C"/>
<path d="M31.2623 16.9293C30.9931 16.9293 30.7339 17.0205 30.4913 16.9361C29.4964 16.5904 28.7773 15.5938 28.7773 14.4184V7.10134C28.7773 5.92589 29.4962 4.92932 30.4913 4.58362C30.734 4.49932 30.9932 4.59047 31.2623 4.59047C32.6347 4.59047 33.6188 5.63905 33.6188 7.10134V14.4184C33.6188 15.8807 32.6347 16.9293 31.2623 16.9293Z" fill="#FFBD86"/>
<path d="M31.2628 4.45386C30.9936 4.45386 30.7349 4.50094 30.4922 4.58524C31.487 4.93093 32.2065 5.92614 32.2065 7.10158V14.4186C32.2065 15.5941 31.487 16.5892 30.4922 16.935C30.7349 17.0194 30.9936 17.0664 31.2628 17.0664C32.6352 17.0664 33.7478 15.8809 33.7478 14.4186V7.10158C33.7478 5.63929 32.6352 4.45386 31.2628 4.45386Z" fill="#F6A96C"/>
<path d="M36.2312 16.9292C35.962 16.9292 35.7028 17.0204 35.46 16.936C34.4651 16.5903 33.7461 15.5937 33.7461 14.4183V8.19606C33.7461 7.02062 34.465 6.02404 35.46 5.67835C35.7028 5.59405 35.962 5.68519 36.2312 5.68519C37.6036 5.68519 38.5877 6.73377 38.5877 8.19606V14.4183C38.5877 15.8806 37.6036 16.9292 36.2312 16.9292Z" fill="#FFBD86"/>
<path d="M36.2316 5.54834C35.9624 5.54834 35.7037 5.59542 35.4609 5.67972C36.4557 6.02541 37.1752 7.02062 37.1752 8.19606V14.4183C37.1752 15.5937 36.4557 16.5888 35.4609 16.9346C35.7037 17.0191 35.9624 17.066 36.2316 17.066C37.604 17.066 38.7165 15.8806 38.7165 14.4183V8.19606C38.7165 6.73377 37.604 5.54834 36.2316 5.54834Z" fill="#F6A96C"/>
<path d="M30.8481 21.8944C30.8481 16.6982 26.1573 15.7888 25.1311 15.652C25.0188 15.6371 24.9343 15.5361 24.9343 15.4156V15.412C24.9343 15.2805 25.0344 15.1739 25.1578 15.1739H27.3832C29.2967 15.1739 30.848 13.5209 30.848 11.4821V11.0715C30.848 10.5734 30.469 10.5801 30.0014 10.5801H23.9908C22.4447 10.5801 21.1914 11.9155 21.1914 13.5628V19.2601C21.1914 19.8951 21.3937 20.5113 21.7652 21.0078L30.8481 21.8944Z" fill="#FED2A4"/>
<path d="M55.2145 30.671H49.7938C48.7298 30.671 47.8672 29.7518 47.8672 28.6181V2.18319C47.8672 1.04949 48.7298 0.130371 49.7938 0.130371H55.2144C56.2784 0.130371 57.141 1.04949 57.141 2.18319V28.6181C57.1412 29.752 56.2786 30.671 55.2145 30.671Z" fill="#FFD64E"/>
<path d="M56.5005 0.130371H53.9316C54.9956 0.130371 55.8583 1.04949 55.8583 2.18319V28.6183C55.8583 29.752 54.9956 30.6711 53.9316 30.6711H56.5005C57.5645 30.6711 58.4271 29.752 58.4271 28.6183V2.18319C58.4271 1.04949 57.5645 0.130371 56.5005 0.130371Z" fill="#00A4D5"/>
<path d="M13.5571 30.671H8.39342C7.32941 30.671 6.4668 29.7518 6.4668 28.6181V2.18319C6.4668 1.04949 7.32941 0.130371 8.39342 0.130371H13.5571C14.6212 0.130371 15.4838 1.04949 15.4838 2.18319V28.6181C15.4838 29.752 14.6212 30.671 13.5571 30.671Z" fill="#FFD64E"/>
<path d="M15.1001 0.130371H12.5312C13.5953 0.130371 14.4579 1.04949 14.4579 2.18319V28.6183C14.4579 29.752 13.5953 30.6711 12.5312 30.6711H15.1001C16.1641 30.6711 17.0267 29.752 17.0267 28.6183V2.18319C17.0267 1.04949 16.1641 0.130371 15.1001 0.130371Z" fill="#00A4D5"/>
</svg>
