<svg xmlns="http://www.w3.org/2000/svg" width="128" height="128" viewBox="0 0 128 128">
  <defs>
    <style>
      .cls-1 {
        fill: #506e4b;
      }

      .cls-2 {
        fill: #699062;
      }

      .cls-3 {
        fill: #fff;
        stroke: #668d60;
        stroke-width: 6px;
      }

      .cls-3, .cls-4 {
        fill-rule: evenodd;
      }

      .cls-4 {
        fill: #abd1e9;
      }

      .cls-5 {
        fill: #93dc6b;
      }

      .cls-6 {
        fill: #f8d953;
      }
    </style>
  </defs>
  <g id="blog-nav-icon">
    <rect class="cls-1" x="48" y="90" width="32" height="11"/>
    <rect id="Rounded_Rectangle_2" data-name="Rounded Rectangle 2" class="cls-2" x="21" y="101" width="84" height="7" rx="3.5" ry="3.5"/>
    <path id="Rounded_Rectangle_1" data-name="Rounded Rectangle 1" class="cls-3" d="M300,16H420a4,4,0,0,1,4.017,3.966L424.31,86.4a3.961,3.961,0,0,1-3.982,3.966h-120A4.005,4.005,0,0,1,296.31,86.4l-0.293-66.43A3.963,3.963,0,0,1,300,16Z" transform="translate(-296)"/>
    <path class="cls-4" d="M312,30h56V78H312V30Zm6,5h45V67H318V35Z" transform="translate(-296)"/>
    <rect class="cls-5" x="78" y="30" width="34" height="23"/>
    <rect id="Rectangle_2_copy" data-name="Rectangle 2 copy" class="cls-6" x="78" y="59" width="34" height="19"/>
  </g>
</svg>
