<svg width="21" height="20" viewBox="0 0 21 20" fill="none" xmlns="http://www.w3.org/2000/svg">
<path d="M10.9287 7.80005C10.6385 7.80005 10.3511 7.85698 10.083 7.96759C9.81486 8.0782 9.57124 8.24033 9.36603 8.44471C9.16082 8.64909 8.99803 8.89172 8.88697 9.15876C8.77591 9.4258 8.71875 9.71201 8.71875 10.001C8.71875 10.2901 8.77591 10.5763 8.88697 10.8433C8.99803 11.1104 9.16082 11.353 9.36603 11.5574C9.57124 11.7618 9.81486 11.9239 10.083 12.0345C10.3511 12.1451 10.6385 12.202 10.9287 12.202C11.5148 12.2019 12.0769 11.9699 12.4912 11.557C12.9056 11.1442 13.1383 10.5843 13.1381 10.0005C13.138 9.41681 12.905 8.85703 12.4905 8.44435C12.076 8.03168 11.5138 7.79992 10.9277 7.80005H10.9287ZM10.9287 5.20005C11.2188 5.19992 11.506 5.14288 11.7739 5.0322C12.0419 4.92152 12.2853 4.75936 12.4904 4.55498C12.6954 4.3506 12.858 4.108 12.9689 3.84103C13.0798 3.57406 13.1368 3.28796 13.1366 2.99905C13.1365 2.71014 13.0792 2.42409 12.9681 2.15722C12.857 1.89036 12.6942 1.6479 12.4889 1.44371C12.2837 1.23951 12.0401 1.07757 11.7721 0.967131C11.504 0.856692 11.2168 0.799918 10.9267 0.800049C10.3408 0.800314 9.77909 1.03235 9.36502 1.44512C8.95096 1.85789 8.71848 2.41757 8.71875 3.00105C8.71902 3.58453 8.952 4.144 9.36644 4.55639C9.78089 4.96878 10.3428 5.20031 10.9287 5.20005ZM10.9287 14.8C10.3426 14.8 9.78047 15.0319 9.36603 15.4447C8.95158 15.8575 8.71875 16.4173 8.71875 17.001C8.71875 17.5848 8.95158 18.1446 9.36603 18.5574C9.78047 18.9702 10.3426 19.202 10.9287 19.202C11.5148 19.202 12.0769 18.9702 12.4914 18.5574C12.9058 18.1446 13.1386 17.5848 13.1386 17.001C13.1386 16.4173 12.9058 15.8575 12.4914 15.4447C12.0769 15.0319 11.5148 14.8 10.9287 14.8Z" fill="white"/>
</svg>
