<svg width="44" height="44" viewBox="0 0 44 44" fill="none" xmlns="http://www.w3.org/2000/svg">
<path d="M10.3125 22.0001C10.3125 19.8201 10.9131 17.778 11.9566 16.0294V8.6123H4.53948C1.59569 12.4355 0 17.0949 0 22.0001C0 26.9052 1.59569 31.5647 4.53948 35.3878H11.9566V27.9708C10.9131 26.2222 10.3125 24.1801 10.3125 22.0001Z" fill="#FBBD00"/>
<path d="M22 33.6876L16.8438 38.8438L22 44.0001C26.9052 44.0001 31.5646 42.4044 35.3878 39.4606V32.0514H27.9786C26.2147 33.0986 24.164 33.6876 22 33.6876Z" fill="#0F9D58"/>
<path d="M11.9566 27.9707L4.53955 35.3878C5.12238 36.1447 5.75703 36.8696 6.44375 37.5564C10.599 41.7116 16.1237 44 22.0001 44V33.6875C17.7355 33.6875 13.9978 31.3913 11.9566 27.9707Z" fill="#31AA52"/>
<path d="M44 22C44 20.6615 43.8788 19.3205 43.6398 18.0145L43.4463 16.9575H22V27.27H32.4373C31.4237 29.2862 29.8653 30.9311 27.9785 32.0514L35.3877 39.4606C36.1446 38.8778 36.8695 38.2431 37.5563 37.5564C41.7116 33.4011 44 27.8764 44 22Z" fill="#3C79E6"/>
<path d="M30.2644 13.7356L31.1758 14.6471L38.4679 7.35513L37.5564 6.44368C33.4012 2.28843 27.8765 0 22 0L16.8438 5.15625L22 10.3125C25.1218 10.3125 28.0568 11.5282 30.2644 13.7356Z" fill="#CF2D48"/>
<path d="M22.0002 10.3125V0C16.1238 0 10.5991 2.28843 6.44375 6.44359C5.75703 7.13032 5.12238 7.8552 4.53955 8.61223L11.9566 16.0293C13.9979 12.6087 17.7356 10.3125 22.0002 10.3125Z" fill="#EB4132"/>
</svg>
