<svg width="48" height="50" viewBox="0 0 48 50" fill="none" xmlns="http://www.w3.org/2000/svg">
<path d="M31.5435 13.8605C31.5435 14.5957 31.2694 15.3008 30.7815 15.8207C30.2935 16.3406 29.6318 16.6326 28.9418 16.6326H18.535C17.845 16.6326 17.1833 16.3406 16.6954 15.8207C16.2075 15.3008 15.9334 14.5957 15.9334 13.8605V2.7721C15.9334 2.03689 16.2075 1.3318 16.6954 0.81193C17.1833 0.29206 17.845 0 18.535 0L28.9418 0C29.6318 0 30.2935 0.29206 30.7815 0.81193C31.2694 1.3318 31.5435 2.03689 31.5435 2.7721V13.8605ZM0.323242 19.4047V47.1257C0.323242 47.8609 0.597348 48.566 1.08526 49.0859C1.57317 49.6058 2.23492 49.8978 2.92493 49.8978H44.5519C45.2419 49.8978 45.9037 49.6058 46.3916 49.0859C46.8795 48.566 47.1536 47.8609 47.1536 47.1257V19.4047H0.323242Z" fill="#CCD6DD"/>
<path d="M23.7384 16.6321H2.92493C2.23492 16.6321 1.57317 16.9241 1.08526 17.444C0.597348 17.9639 0.323242 18.669 0.323242 19.4042H26.3401C26.3401 18.669 26.066 17.9639 25.5781 17.444C25.0902 16.9241 24.4284 16.6321 23.7384 16.6321Z" fill="#99AAB5"/>
<path d="M44.5519 16.6321H23.7384C23.0484 16.6321 22.3866 16.9241 21.8987 17.444C21.4108 17.9639 21.1367 18.669 21.1367 19.4042H47.1536C47.1536 18.669 46.8795 17.9639 46.3916 17.444C45.9036 16.9241 45.2419 16.6321 44.5519 16.6321Z" fill="#99AAB5"/>
<path d="M2.92578 30.4931H44.5528V36.0373H2.92578V30.4931ZM2.92578 22.1768H44.5528V27.721H2.92578V22.1768ZM2.92578 38.8094H44.5528V44.3536H2.92578V38.8094Z" fill="#55ACEE"/>
<path d="M10.7305 16.6321H36.7473V49.8973H10.7305V16.6321Z" fill="#E1E8ED"/>
<path d="M13.332 27.7208H34.1455V33.265H13.332V27.7208ZM13.332 19.4045H34.1455V24.9487H13.332V19.4045ZM13.332 36.0371H34.1455V41.5814H13.332V36.0371Z" fill="#55ACEE"/>
<path d="M17.2344 44.3533H30.2428V49.8975H17.2344V44.3533Z" fill="#3B88C3"/>
<path d="M28.9419 5.5439H25.0394V1.38574H22.4377V5.5439H18.5352V8.316H22.4377V12.4742H25.0394V8.316H28.9419V5.5439Z" fill="#DD2E44"/>
<path d="M34.1456 13.8601H13.3322C12.6421 13.8601 11.9804 14.1522 11.4925 14.672C11.0046 15.1919 10.7305 15.897 10.7305 16.6322H36.7473C36.7473 15.897 36.4732 15.1919 35.9853 14.672C35.4974 14.1522 34.8357 13.8601 34.1456 13.8601Z" fill="#99AAB5"/>
</svg>
