<svg width="36" height="36" viewBox="0 0 36 36" fill="none" xmlns="http://www.w3.org/2000/svg">
<path d="M29.0577 21.1359C28.7184 21.6562 28.8653 22.3533 29.3858 22.6926C29.9061 23.032 30.6032 22.8852 30.9426 22.3647C32.7458 19.5991 33.7935 16.2954 33.7935 12.7503C33.7935 9.20514 32.7458 5.90135 30.9426 3.1358C30.6032 2.61534 29.9061 2.46852 29.3858 2.80787C28.8653 3.14723 28.7184 3.84423 29.0577 4.3647C30.6299 6.77582 31.5435 9.65462 31.5435 12.7503C31.5435 15.8458 30.6299 18.7246 29.0577 21.1359Z" fill="white"/>
<path d="M7.03284 2.80787C7.55331 3.14721 7.70013 3.84423 7.36077 4.3647C5.78869 6.77582 4.875 9.65462 4.875 12.7503C4.875 15.8458 5.78868 18.7246 7.36077 21.1359C7.70013 21.6562 7.55331 22.3533 7.03284 22.6926C6.51239 23.032 5.81537 22.8852 5.47602 22.3647C3.67284 19.5991 2.625 16.2954 2.625 12.7503C2.625 9.20514 3.67284 5.90135 5.47602 3.1358C5.81537 2.61534 6.51239 2.46852 7.03284 2.80787Z" fill="white"/>
<path d="M10.5675 8.906C10.9298 8.40129 10.8145 7.69839 10.3098 7.33601C9.80507 6.97362 9.10217 7.089 8.73978 7.59369C7.72359 9.00897 7.125 10.7459 7.125 12.6194C7.125 14.4928 7.72359 16.2297 8.73978 17.6451C9.10217 18.1497 9.80507 18.2651 10.3098 17.9028C10.8145 17.5404 10.9298 16.8375 10.5675 16.3328C9.81676 15.2873 9.375 14.0066 9.375 12.6194C9.375 11.2322 9.81676 9.95151 10.5675 8.906Z" fill="white"/>
<path d="M26.0863 16.3332C25.7239 16.838 25.8392 17.5409 26.344 17.9033C26.8486 18.2657 27.5515 18.1502 27.9139 17.6456C28.9301 16.2303 29.5286 14.4933 29.5286 12.6199C29.5286 10.7464 28.9301 9.00946 27.9139 7.59418C27.5515 7.08948 26.8486 6.97411 26.344 7.3365C25.8392 7.69887 25.7239 8.40178 26.0863 8.90647C26.8369 9.952 27.2786 11.2327 27.2786 12.6199C27.2786 14.007 26.8369 15.2877 26.0863 16.3332Z" fill="white"/>
<path d="M18 3.375C15.3076 3.375 13.125 5.55761 13.125 8.25V15.75C13.125 18.4424 15.3076 20.625 18 20.625C20.6923 20.625 22.875 18.4424 22.875 15.75V8.25C22.875 5.55761 20.6923 3.375 18 3.375Z" fill="white"/>
<path d="M13.875 21.0006C13.875 20.3793 13.3713 19.8756 12.75 19.8756C12.1287 19.8756 11.625 20.3793 11.625 21.0006V21.7506C11.625 24.0288 13.4718 25.8756 15.75 25.8756H16.875V31.8756H14.25C13.6287 31.8756 13.125 32.3793 13.125 33.0006C13.125 33.6219 13.6287 34.1256 14.25 34.1256H21.75C22.3713 34.1256 22.875 33.6219 22.875 33.0006C22.875 32.3793 22.3713 31.8756 21.75 31.8756H19.125V25.8756H20.25C22.5282 25.8756 24.375 24.0288 24.375 21.7506V21.0006C24.375 20.3793 23.8713 19.8756 23.25 19.8756C22.6287 19.8756 22.125 20.3793 22.125 21.0006V21.7506C22.125 22.7862 21.2856 23.6256 20.25 23.6256H15.75C14.7145 23.6256 13.875 22.7862 13.875 21.7506V21.0006Z" fill="white"/>
</svg>
