<svg width="47" height="30" viewBox="0 0 47 30" fill="none" xmlns="http://www.w3.org/2000/svg">
<path d="M10.43 29.931C16.328 29.931 20.985 25.149 20.985 19.251C20.985 13.353 16.141 8.57103 10.243 8.57103C10.184 8.57103 10.095 8.57903 10.036 8.58003C12.368 6.72303 15.297 5.60403 18.503 5.60403C19.978 5.60403 21.165 4.40803 21.165 2.93403C21.165 1.46003 20.216 0.26403 18.741 0.26403C8.27204 0.26503 4.00543e-05 8.78203 4.00543e-05 19.251C4.00543e-05 19.253 4.00543e-05 19.255 4.00543e-05 19.258C4.00543e-05 25.153 4.53404 29.931 10.43 29.931Z" fill="#6AC7C0"/>
<path d="M35.4453 29.931C41.3433 29.931 46.0083 25.149 46.0083 19.251C46.0083 13.353 41.1683 8.57103 35.2693 8.57103C35.2103 8.57103 35.1233 8.57903 35.0643 8.58003C37.3963 6.72303 40.3263 5.60403 43.5323 5.60403C45.0073 5.60403 46.1953 4.40803 46.1953 2.93403C46.1953 1.46003 45.2313 0.26403 43.7563 0.26403C33.2873 0.26503 25.0003 8.78203 25.0003 19.251C25.0003 19.253 25.0003 19.255 25.0003 19.258C25.0003 25.153 29.5493 29.931 35.4453 29.931Z" fill="#6AC7C0"/>
</svg>
