<svg width="26" height="26" viewBox="0 0 26 26" fill="none" xmlns="http://www.w3.org/2000/svg">
<g clip-path="url(#clip0)">
<path d="M11.4499 0C5.13657 0 0 5.13657 0 11.4499C0 17.7635 5.13657 22.8997 11.4499 22.8997C17.7635 22.8997 22.8997 17.7635 22.8997 11.4499C22.8997 5.13657 17.7635 0 11.4499 0ZM11.4499 20.7859C6.302 20.7859 2.11382 16.5977 2.11382 11.4499C2.11382 6.30205 6.302 2.11382 11.4499 2.11382C16.5977 2.11382 20.7859 6.302 20.7859 11.4499C20.7859 16.5977 16.5977 20.7859 11.4499 20.7859Z" fill="white"/>
<path d="M25.69 24.1957L19.6303 18.1361C19.2174 17.7232 18.5488 17.7232 18.1358 18.1361C17.7229 18.5486 17.7229 19.218 18.1358 19.6306L24.1955 25.6902C24.4019 25.8966 24.6722 25.9999 24.9427 25.9999C25.2129 25.9999 25.4835 25.8966 25.69 25.6902C26.1029 25.2777 26.1029 24.6083 25.69 24.1957Z" fill="white"/>
</g>
<defs>
<clipPath id="clip0">
<rect width="26" height="26" fill="white"/>
</clipPath>
</defs>
</svg>
