<svg width="68" height="51" viewBox="0 0 68 51" fill="none" xmlns="http://www.w3.org/2000/svg">
<path d="M14.2356 35.0695C11.3623 35.0381 8.56893 34.0386 6.24119 32.209C2.99508 29.8841 0.999823 25.9833 0.897461 21.7619V15.7169C0.897461 13.046 2.89118 10.8809 5.35056 10.8809H12.0302C12.6451 10.8809 13.1435 11.4222 13.1435 12.0899C13.1435 12.7576 12.6451 13.2989 12.0302 13.2989H5.35056C4.12087 13.2989 3.12401 14.3815 3.12401 15.7169V21.7619C3.23256 25.1998 4.879 28.3638 7.53481 30.2383C10.3631 32.5441 14.0408 33.2295 17.4151 32.0796C17.7942 31.922 18.2223 32.0009 18.5322 32.2856C18.8421 32.5702 18.9848 33.0156 18.9046 33.4477C18.8243 33.8798 18.5339 34.2303 18.1466 34.3622C16.8886 34.8342 15.5665 35.0732 14.2356 35.0695Z" fill="#EB4132"/>
<path d="M54.3574 35.0768C52.2615 35.0873 50.2017 34.4842 48.3947 33.331C47.865 32.9918 47.6888 32.2505 48.0012 31.6752C48.3135 31.1 48.9961 30.9086 49.5258 31.2478C52.8184 33.222 56.8366 33.1077 60.0296 30.9492C63.2186 29.1562 65.2895 25.6571 65.4668 21.7619V15.7169C65.4668 14.3815 64.47 13.2989 63.2403 13.2989H56.5606C55.9458 13.2989 55.4473 12.7576 55.4473 12.0899C55.4473 11.4222 55.9458 10.8809 56.5606 10.8809H63.2403C65.6997 10.8809 67.6934 13.046 67.6934 15.7169V21.7619C67.5168 26.5255 65.0175 30.8264 61.134 33.0493C59.076 34.3539 56.7402 35.0528 54.3574 35.0768Z" fill="#EB4132"/>
<path d="M56.561 12.0905V25.3896C56.653 38.272 47.8025 49.1651 36.0211 50.67C34.8746 50.8151 33.7165 50.8151 32.57 50.67C20.7885 49.1651 11.938 38.272 12.03 25.3896V12.0905L16.4831 12.0784C22.1191 11.945 27.3975 9.05217 30.8444 4.20778C31.6851 3.07837 32.95 2.42105 34.2873 2.41871C35.6246 2.41636 36.8915 3.06924 37.7355 4.19569C41.184 9.04595 46.4667 11.9433 52.1079 12.0784L56.561 12.0905Z" fill="#F14F6E"/>
<path d="M56.5603 12.0903V14.5083L52.1072 14.4962C46.466 14.3611 41.1833 11.4637 37.7348 6.61346C36.8908 5.48701 35.6239 4.83413 34.2866 4.83648C32.9493 4.83882 31.6844 5.49614 30.8437 6.62555C27.3968 11.4699 22.1184 14.3628 16.4824 14.4962L12.0293 14.5083V12.0903C12.033 10.7565 13.0277 9.67624 14.2558 9.67226H15.9369C20.4073 9.61479 24.6157 7.37186 27.3925 3.56676C29.0816 1.31014 31.617 0 34.2948 0C36.9727 0 39.508 1.31014 41.1971 3.56676C43.974 7.37186 48.1823 9.61479 52.6527 9.67226H54.3338C55.5619 9.67624 56.5567 10.7565 56.5603 12.0903Z" fill="#FFD64E"/>
<path d="M34.2964 31.4206C29.2749 31.4186 24.2826 30.5899 19.4898 28.9627C19.11 28.8344 18.822 28.4958 18.7344 28.0744C18.6468 27.653 18.7728 27.2129 19.065 26.9198C19.3573 26.6267 19.7713 26.5252 20.1511 26.6534C29.3586 29.7848 39.2275 29.7848 48.435 26.6534C48.8148 26.5252 49.2289 26.6267 49.5211 26.9198C49.8133 27.2129 49.9393 27.653 49.8517 28.0744C49.7641 28.4958 49.4761 28.8344 49.0963 28.9627C44.3057 30.5892 39.3157 31.4179 34.2964 31.4206Z" fill="#A50000"/>
<path d="M34.2957 22.9648C29.3928 22.9689 24.4969 22.5623 19.6516 21.7485C19.0503 21.6388 18.6422 21.0243 18.7361 20.37C18.83 19.7158 19.391 19.2653 19.9945 19.3595C29.4728 20.9433 39.1185 20.9433 48.5968 19.3595C48.9921 19.2874 49.3926 19.4516 49.6454 19.7896C49.8981 20.1275 49.9641 20.5869 49.818 20.9923C49.672 21.3977 49.3365 21.6866 48.9397 21.7485C44.0944 22.5623 39.1985 22.9689 34.2957 22.9648Z" fill="#A50000"/>
<path d="M34.2958 41.1159C29.116 41.0995 24.0058 39.8186 19.3434 37.368C18.9581 37.2002 18.6909 36.8136 18.65 36.365C18.6091 35.9164 18.8013 35.4804 19.1488 35.2338C19.4962 34.9872 19.9411 34.971 20.303 35.1918C29.1328 39.8767 39.4588 39.8767 48.2885 35.1918C48.6504 34.971 49.0953 34.9872 49.4428 35.2338C49.7902 35.4804 49.9825 35.9164 49.9416 36.365C49.9007 36.8136 49.6334 37.2002 49.2482 37.368C44.5857 39.8186 39.4756 41.0995 34.2958 41.1159Z" fill="#A50000"/>
</svg>
