<svg width="23" height="23" viewBox="0 0 23 23" fill="none" xmlns="http://www.w3.org/2000/svg">
<path d="M15.0762 11.0748L10.574 7.79176C10.4088 7.67161 10.1895 7.65352 10.0084 7.74688C9.82583 7.83953 9.71183 8.02771 9.71183 8.23109V14.795C9.71183 15.0005 9.82583 15.188 10.0084 15.2806C10.0856 15.3197 10.17 15.3392 10.2551 15.3392C10.3662 15.3392 10.4788 15.3038 10.574 15.2336L15.0762 11.9534C15.2183 11.8485 15.3013 11.6864 15.3013 11.5141C15.302 11.339 15.2169 11.1776 15.0762 11.0748Z" fill="white"/>
<path d="M11.5004 0.626221C5.51199 0.626221 0.65918 5.49429 0.65918 11.5016C0.65918 17.5067 5.51199 22.3733 11.5004 22.3733C17.4875 22.3733 22.341 17.506 22.341 11.5016C22.3417 5.49429 17.4875 0.626221 11.5004 0.626221ZM11.5004 20.5588C6.51344 20.5588 2.47015 16.505 2.47015 11.5016C2.47015 6.50033 6.51344 2.44143 11.5004 2.44143C16.4867 2.44143 20.5293 6.49961 20.5293 11.5016C20.53 16.505 16.4867 20.5588 11.5004 20.5588Z" fill="white"/>
</svg>
