<svg width="23" height="21" viewBox="0 0 23 21" fill="none" xmlns="http://www.w3.org/2000/svg">
<path d="M19.8002 0.0922852H3.20002C1.79892 0.0922852 0.65918 1.23561 0.65918 2.64111V16.7446C0.65918 18.6186 2.17889 20.1431 4.04696 20.1431H13.6175C14.0853 20.1431 14.4644 19.7627 14.4644 19.2935C14.4644 18.8242 14.0853 18.4438 13.6175 18.4438H4.04696C3.11301 18.4438 2.35307 17.6815 2.35307 16.7446V5.23242H20.6471V13.0488C20.6471 13.5181 21.0262 13.8984 21.494 13.8984C21.9619 13.8984 22.341 13.5181 22.341 13.0488V2.64111C22.341 1.23561 21.2013 0.0922852 19.8002 0.0922852ZM16.37 1.7915C16.837 1.7915 17.217 2.17267 17.217 2.64111C17.217 3.10956 16.837 3.49072 16.37 3.49072C15.903 3.49072 15.5231 3.10956 15.5231 2.64111C15.5231 2.17267 15.903 1.7915 16.37 1.7915ZM20.6048 2.64111C20.6048 3.10956 20.2248 3.49072 19.7578 3.49072C19.2908 3.49072 18.9109 3.10956 18.9109 2.64111C18.9109 2.17267 19.2908 1.7915 19.7578 1.7915C20.2248 1.7915 20.6048 2.17267 20.6048 2.64111ZM2.35307 2.64111C2.35307 2.17267 2.73304 1.7915 3.20002 1.7915H13.9749C13.8808 2.0575 13.8292 2.34325 13.8292 2.64111C13.8292 2.9549 13.8863 3.25542 13.9901 3.5332H2.35307V2.64111ZM16.9579 11.9777C16.8593 11.8786 16.7379 11.8054 16.6044 11.7648L13.2707 10.7491C12.9751 10.659 12.6542 10.7375 12.4331 10.9538C12.2121 11.1702 12.1259 11.4902 12.2084 11.7889L13.1553 15.218C13.1943 15.3592 13.2689 15.4878 13.3721 15.5914L18.0035 20.2461C18.4988 20.7429 19.1496 20.9915 19.8002 20.9915C20.4508 20.9915 21.1013 20.7429 21.5968 20.2461C22.5875 19.2523 22.5875 17.6354 21.5974 16.6422L16.9579 11.9777ZM14.2518 12.8238L15.9088 13.3288L19.0394 16.4761L17.8414 17.6779L14.7282 14.5491L14.2518 12.8238ZM20.399 19.0445C20.0688 19.3759 19.5315 19.3759 19.2018 19.0452L19.0381 18.8806L20.2359 17.679L20.3991 17.8431C20.7293 18.1744 20.7293 18.7133 20.399 19.0445Z" fill="white"/>
</svg>
